<?xml version="1.0" encoding="UTF-8" standalone="no"?>
<svg
        width="586.51538"
        height="586.51538"
        viewBox="0 0 586.5154 586.51538"
        fill="none"
        version="1.1"
        id="svg119"
        xml:space="preserve"
        xmlns="http://www.w3.org/2000/svg"><defs
     id="defs117"><rect
       x="8.6230478"
       y="186.70721"
       width="746.72937"
       height="203.69717"
       id="rect335" /><clipPath
        id="clip0_122_3022"><rect
         width="666.10199"
         height="153"
         fill="#ffffff"
         id="rect114"
         x="0"
         y="0" /></clipPath><rect
        x="8.6230478"
        y="186.70721"
        width="746.72937"
        height="203.69717"
        id="rect335-3"/><rect
        x="8.6230478"
        y="186.70721"
        width="746.72937"
        height="203.69717"
        id="rect335-3-0"/><rect
        x="8.6230478"
        y="186.70721"
        width="746.72937"
        height="203.69717"
        id="rect335-3-0-9"/></defs>
    <g
            id="g568"
            style="display:inline"
            transform="translate(153.77316,9.5645285)"/>
    <g
            id="layer2"
            style="display:inline"
            transform="translate(153.77316,9.5645285)"/>
    <g
            id="layer1"
            style="display:inline"
            transform="translate(153.77316,9.5645285)"><circle
       style="font-variation-settings:normal;opacity:1;vector-effect:none;fill:#ff15a0;fill-opacity:1;stroke-width:11.7333;stroke-linecap:round;stroke-linejoin:round;stroke-miterlimit:4;stroke-dasharray:none;stroke-dashoffset:0;stroke-opacity:1;-inkscape-stroke:none;stop-color:#000000;stop-opacity:1"
       id="path391"
       cx="139.48454"
       cy="283.69318"
       r="267.91589" />
        <circle
                style="font-variation-settings:normal;display:inline;vector-effect:none;fill:none;fill-opacity:1;stroke:#ff15a0;stroke-width:12.5679;stroke-linecap:round;stroke-linejoin:round;stroke-miterlimit:4;stroke-dasharray:none;stroke-dashoffset:0;stroke-opacity:1;-inkscape-stroke:none;stop-color:#000000"
                id="path391-7"
                cx="139.48454"
                cy="283.69318"
                r="286.97375"/>
        <g
                id="g404"
                transform="translate(168.91633,-1.920876)"
                style="fill:#ffffff"><g
         id="g329"
         transform="translate(-313.51,-32.89555)"
         style="fill:#ffffff"><path
           d="m 165.92351,491.14038 28.992,-137.088 h 53.76 l -3.84,18.24 h -33.024 l -9.216,43.584 h 30.72 l -4.032,18.24 h -30.72 l -11.904,57.024 z"
           style="font-style:italic;font-weight:600;font-stretch:extra-condensed;font-size:96px;line-height:1.25;font-family:'Noto Sans';-inkscape-font-specification:'Noto Sans Semi-Bold Italic Extra-Condensed';letter-spacing:0px;word-spacing:0px;white-space:pre;fill:#ffffff;fill-opacity:1;stroke-width:2"
           id="path1153" /><path
                d="m 236.00347,491.14038 28.992,-137.088 h 53.76 l -3.84,18.24 h -33.024 l -8.064,38.4 h 30.72 l -4.032,18.24 h -30.72 l -9.408,43.776 h 33.216 l -3.84,18.432 z"
                style="font-style:italic;font-weight:600;font-stretch:extra-condensed;font-size:96px;line-height:1.25;font-family:'Noto Sans';-inkscape-font-specification:'Noto Sans Semi-Bold Italic Extra-Condensed';letter-spacing:0px;word-spacing:0px;white-space:pre;fill:#ffffff;fill-opacity:1;stroke-width:2"
                id="path1155"/><path
                d="m 333.92337,493.06038 q -18.24,0 -28.416,-7.104 l 3.84,-21.504 q 4.992,3.648 11.52,6.336 6.72,2.688 13.44,2.688 8.448,0 14.208,-5.184 5.952,-5.184 5.952,-15.936 0,-4.416 -1.152,-7.872 -0.96,-3.648 -3.84,-7.488 -2.88,-3.84 -8.256,-9.216 -8.064,-7.488 -12.48,-15.168 -4.224,-7.872 -4.224,-19.584 0,-11.904 4.8,-21.12 4.992,-9.408 14.208,-14.592 9.408,-5.184 22.656,-5.184 7.104,0 14.592,2.304 7.68,2.112 13.05598,5.952 l -9.59998,18.816 q -4.992,-3.648 -9.984,-5.568 -4.8,-2.112 -9.408,-2.112 -7.68,0 -13.056,4.992 -5.376,4.992 -5.376,14.4 0,6.72 3.264,11.904 3.456,5.184 11.52,12.864 7.872,7.296 11.52,15.36 3.648,7.872 3.648,19.2 0,11.904 -4.8,21.696 -4.8,9.6 -14.208,15.36 -9.408,5.76 -23.424,5.76 z"
                style="font-style:italic;font-weight:600;font-stretch:extra-condensed;font-size:96px;line-height:1.25;font-family:'Noto Sans';-inkscape-font-specification:'Noto Sans Semi-Bold Italic Extra-Condensed';letter-spacing:0px;word-spacing:0px;white-space:pre;fill:#ffffff;fill-opacity:1;stroke-width:2"
                id="path1157"/></g>
            <g
                    id="g337"
                    transform="translate(67.709135)"
                    style="fill:#ffffff"><path
           d="m -336.63975,293.91928 28.992,-137.088 h 24.768 q 16.896,0 24.96,8.448 8.064,8.448 8.064,22.464 0,14.592 -5.376,27.264 -5.184,12.48 -15.744,20.16 -10.368,7.68 -25.92,7.68 h -8.256 l -10.752,51.072 z m 39.744,-69.312 q 12.48,0 19.008,-9.408 6.72,-9.6 6.72,-24.768 0,-15.36 -15.168,-15.36 h -4.416 l -10.56,49.536 z"
           style="font-style:italic;font-weight:600;font-stretch:extra-condensed;font-size:96px;line-height:1.25;font-family:'Noto Sans';-inkscape-font-specification:'Noto Sans Semi-Bold Italic Extra-Condensed';letter-spacing:0px;word-spacing:0px;white-space:pre;fill:#ffffff;fill-opacity:1;stroke-width:2"
           id="path1127" />
                <path
                        d="m -217.59958,295.83928 q -14.016,0 -22.08,-7.872 -7.872,-8.064 -7.872,-22.272 0,-7.296 1.92,-16.32 l 19.584,-92.544 h 20.736 l -19.776,93.12 q -0.768,3.456 -1.152,6.72 -0.384,3.264 -0.384,5.76 0,14.784 11.904,14.784 8.448,0 13.248,-6.72 4.8,-6.912 8.064,-21.888 l 19.776,-91.776 h 20.736 l -20.352,94.464 q -4.416,20.928 -14.592,32.832 -9.984,11.712 -29.76,11.712 z"
                        style="font-style:italic;font-weight:600;font-stretch:extra-condensed;font-size:96px;line-height:1.25;font-family:'Noto Sans';-inkscape-font-specification:'Noto Sans Semi-Bold Italic Extra-Condensed';letter-spacing:0px;word-spacing:0px;white-space:pre;fill:#ffffff;fill-opacity:1;stroke-width:2"
                        id="path1129"/>
                <path
                        d="m -166.71942,293.91928 3.072,-15.168 60.48,-103.68 h -37.44 l 3.84,-18.24 h 61.056003 l -3.264,15.36 -60.672003,103.296 h 39.744003 l -3.840003,18.432 z"
                        style="font-style:italic;font-weight:600;font-stretch:extra-condensed;font-size:96px;line-height:1.25;font-family:'Noto Sans';-inkscape-font-specification:'Noto Sans Semi-Bold Italic Extra-Condensed';letter-spacing:0px;word-spacing:0px;white-space:pre;fill:#ffffff;fill-opacity:1;stroke-width:2"
                        id="path1131"/>
                <path
                        d="m -95.871517,293.91928 3.072,-15.168 60.48,-103.68 h -37.44 l 3.84,-18.24 h 61.0559996 l -3.264,15.36 -60.6719996,103.296 h 39.744 l -3.84,18.432 z"
                        style="font-style:italic;font-weight:600;font-stretch:extra-condensed;font-size:96px;line-height:1.25;font-family:'Noto Sans';-inkscape-font-specification:'Noto Sans Semi-Bold Italic Extra-Condensed';letter-spacing:0px;word-spacing:0px;white-space:pre;fill:#ffffff;fill-opacity:1;stroke-width:2"
                        id="path1133"/>
                <path
                        d="m -17.535617,293.91928 28.992,-137.088 h 20.736 L 6.8483826,275.48728 H 40.064383 l -3.648,18.432 z"
                        style="font-style:italic;font-weight:600;font-stretch:extra-condensed;font-size:96px;line-height:1.25;font-family:'Noto Sans';-inkscape-font-specification:'Noto Sans Semi-Bold Italic Extra-Condensed';letter-spacing:0px;word-spacing:0px;white-space:pre;fill:#ffffff;fill-opacity:1;stroke-width:2"
                        id="path1135"/>
                <path
                        d="m 51.200343,293.91928 28.992,-137.088 h 53.759997 l -3.84,18.24 H 97.088343 l -8.064,38.4 h 30.719997 l -4.032,18.24 H 84.992343 l -9.408,43.776 h 33.215997 l -3.84,18.432 z"
                        style="font-style:italic;font-weight:600;font-stretch:extra-condensed;font-size:96px;line-height:1.25;font-family:'Noto Sans';-inkscape-font-specification:'Noto Sans Semi-Bold Italic Extra-Condensed';letter-spacing:0px;word-spacing:0px;white-space:pre;fill:#ffffff;fill-opacity:1;stroke-width:2"
                        id="path1137"/></g></g></g></svg>
