<?xml version="1.0" encoding="UTF-8" standalone="no"?>
<svg
        width="1385.3466"
        height="187.06642"
        viewBox="0 0 1385.3466 187.06642"
        fill="none"
        version="1.1"
        id="svg119"
        xmlns="http://www.w3.org/2000/svg">
    <defs
            id="defs117">
        <rect
                x="8.6230478"
                y="186.70721"
                width="746.72937"
                height="203.69717"
                id="rect335"/>
        <clipPath
                id="clip0_122_3022">
            <rect
                    width="666.10199"
                    height="153"
                    fill="#ffffff"
                    id="rect114"
                    x="0"
                    y="0"/>
        </clipPath>
        <rect
                x="8.6230478"
                y="186.70721"
                width="746.72937"
                height="203.69717"
                id="rect335-3"/>
        <rect
                x="8.6230478"
                y="186.70721"
                width="746.72937"
                height="203.69717"
                id="rect335-3-0"/>
        <rect
                x="8.6230478"
                y="186.70721"
                width="746.72937"
                height="203.69717"
                id="rect335-3-0-9"/>
    </defs>
    <g
            id="g568"
            style="display:inline"
            transform="translate(359.62078,-131.74667)">
        <path
                id="path566"
                style="font-size:96px;line-height:1.25;font-family:monospace;-inkscape-font-specification:monospace;letter-spacing:0px;word-spacing:0px;white-space:pre;shape-inside:url(#rect335-3-0-9);fill:#ff15a0;stroke-width:2"
                d="m 299.07178,131.74669 c -11.82626,0 -23.7571,3.40022 -33.68358,9.88282 -2.52982,1.6521 -4.70236,3.78138 -7.01954,5.72264 -0.96162,-1.05576 -2.0196,-2.01956 -3.16016,-2.8789 -6.08366,-4.34548 -12.89242,-7.30762 -20.0078,-9.29688 -6.83128,-2.06792 -13.89154,-3.23828 -20.9922,-3.23828 -11.82786,0 -23.4772,2.37896 -33.74218,8.03516 -0.0588,0.0322 -0.1174,0.0648 -0.1758,0.0976 -9.77876,5.50056 -17.98722,13.9514 -23.23828,23.84766 -0.0276,0.052 -0.0548,0.104 -0.082,0.1562 -0.78882,1.51454 -1.39318,3.10606 -2.05078,4.67578 l 1.51172,-7.18358 c 3.0046,-14.2788 -7.88896,-27.70506 -22.48046,-27.70704 H 80.192899 c -10.8553,7.2e-4 -20.22896,7.5987 -22.47656,18.21876 l -21.2422,100.4375 h -1.22656 l 19.41406,-90.88672 c 3.04986,-14.29656 -7.85048,-27.76852 -22.46874,-27.76954 h -20.73828 c -2.3497004,0.43864 -4.6165604,1.24128 -6.7187604,2.3789 -2.98864,-1.48014 -6.26368,-2.2919 -9.59764,-2.3789 H -65.920381 c -1.01388,0.28304 -2.0071,0.63544 -2.97266,1.05468 -2.20738,-0.69294 -4.50674,-1.04852 -6.82032,-1.05468 h -61.054679 c -2.30872,0.43884 -4.53646,1.22928 -6.60546,2.34376 -2.9688,-1.45758 -6.21728,-2.25704 -9.52344,-2.34376 h -20.7344 c -5.88246,0.23134 -11.45169,2.71184 -15.5586,6.92968 -4.24526,-4.35176 -10.04222,-6.8436 -16.12109,-6.92968 h -20.73828 c -8.10126,0.52766 -15.32268,5.29144 -18.99609,12.53126 -10.5963,-8.90756 -24.31919,-12.53126 -37.83594,-12.53126 h -24.76563 c -10.8553,7.2e-4 -20.22895,7.5987 -22.47656,18.21876 l -28.99219,137.08602 c -3.01871,14.28426 7.87681,27.72474 22.47657,27.72658 h 20.73437 c 10.86271,-8.2e-4 20.24056,-7.60902 22.48047,-18.23828 l 7.68141,-35.73798 -11.15407,2.90594 c 9.18439,0 18.27577,-1.7958 26.67969,-5.21484 -0.10222,1.69558 -0.30859,3.4073 -0.30859,5.08984 0,13.71974 4.45649,28.12002 14.41015,38.3164 0.12864,0.1318 0.25886,0.262 0.39063,0.39064 10.13179,9.89058 24.47511,14.41014 38.125,14.41014 12.31895,0 24.64289,-3.25472 34.96094,-9.64062 4.06307,4.59438 9.79442,7.37356 15.91796,7.71876 h 62.97657 c 1.24492,-0.32718 2.46012,-0.75838 3.63282,-1.28908 1.369199,0.56544 2.789879,0.99714 4.242179,1.28908 h 62.97266 c 2.48994,-0.44452 4.8894,-1.29714 7.10156,-2.52344 2.56958,1.35594 5.37304,2.21222 8.26172,2.52344 h 53.94922 c 2.38262,-0.4484 4.67926,-1.27108 6.80468,-2.4375 2.48908,1.2928 5.19384,2.11892 7.98048,2.4375 H 104.9585 c 10.87874,-0.001 20.26542,-7.63204 22.48828,-18.28126 l 3.84376,-18.42968 c 2.19372,-10.97448 -3.83902,-21.93304 -14.28516,-25.94922 10.15742,-0.52946 18.75792,-7.6743 21.14062,-17.5625 l 4.03126,-18.2422 c 1.6946,-8.1461 -1.14734,-16.57182 -7.4297,-22.02734 7.4358,-1.69514 13.54584,-6.96954 16.3086,-14.07812 -0.82144,4.4471 -1.48438,8.93976 -1.48438,13.48828 0,10.56724 1.89244,21.01402 6.95314,30.44532 0.1052,0.1982 0.21326,0.39482 0.3242,0.58984 4.34844,7.5625 10.05258,14.31724 16.76564,20.55078 l -0.61328,-0.58984 c 2.55692,2.55692 3.9584,4.23294 5.04296,5.5625 -0.20652,-0.0732 -0.31618,-0.0308 -0.53516,-0.1172 -2.79068,-1.16278 -4.96362,-2.38656 -6.57812,-3.5664 -13.71346,-10.01956 -33.1826,-2.21088 -36.17188,14.50782 l -3.83984,21.5039 c -1.57382,8.81808 2.1206,17.74688 9.46484,22.875 12.06324,8.4215 26.42202,11.24218 41.56642,11.24218 12.49392,4e-5 24.8179,-2.6484 35.42186,-9.14062 4.63606,-2.8384 8.8803,-6.3416 12.62892,-10.3125 0.0996,0.1306 0.1488,0.28018 0.25,0.41016 0.0964,0.1234 0.194,0.24578 0.29296,0.36718 10.33544,12.73904 27.11634,18.67578 42.99218,18.67578 12.44842,4e-5 25.0276,-3.71658 35.25392,-10.875 1.64394,-1.15076 2.96348,-2.69412 4.5078,-3.97266 3.7626,7.74088 11.536,12.72968 20.14064,12.9258 h 53.95312 c 5.59046,-0.111 10.9486,-2.25666 15.0703,-6.03516 4.024,3.69422 9.23256,5.83386 14.69142,6.03516 h 23.80468 c 6.60864,-0.36822 12.73746,-3.56858 16.81642,-8.78126 4.07188,5.20474 10.18762,8.40422 16.78514,8.78126 h 50.4961 c 2.42436,-0.44374 4.76152,-1.27468 6.92188,-2.46094 2.51032,1.3096 5.24108,2.14394 8.05468,2.46094 h 19.58204 c 8.08268,-0.5263 15.29112,-5.26958 18.97264,-12.48438 3.65972,7.17944 10.8132,11.9168 18.85158,12.48438 h 23.42578 c 10.6235,-0.076 19.80954,-7.42554 22.21484,-17.77344 0.018,0.023 0.0278,0.0514 0.0468,0.0742 11.27782,13.57942 29.17836,19.62108 46.66406,19.62108 6.53078,4e-5 13.1362,-0.79774 19.96874,-2.1953 6.90938,-1.41328 13.77788,-3.43146 20.59766,-6.00782 7.3309,-2.7686 12.7452,-9.0826 14.36328,-16.75 l 14.78516,-70.07812 c 1.91192,-9.10938 -1.861,-18.47228 -9.55468,-23.71094 3.21632,-1.9472 5.90566,-4.65396 7.83202,-7.88282 l 9.60156,-17.66406 c 5.4445,-10.01632 2.72094,-22.51008 -6.39844,-29.35156 -6.2131,-4.65982 -13.22174,-7.8496 -20.58202,-10.0039 -7.51616,-2.19978 -15.37458,-3.23048 -23.34766,-3.23048 -14.2234,0 -28.31754,4.04292 -40.09376,11.86328 -1.99018,1.29976 -3.85896,2.76936 -5.73046,4.23438 -3.55256,-8.56794 -11.90836,-14.15952 -21.1836,-14.17578 h -19.77734 c -8.00836,0.52542 -15.16216,5.19146 -18.87108,12.3086 -3.68826,-7.08428 -10.79086,-11.7449 -18.75782,-12.3086 h -23.61718 c -2.06914,0.42518 -4.06976,1.13368 -5.94532,2.10546 -2.83602,-1.30836 -5.90902,-2.02478 -9.03126,-2.10546 h -50.6875 c -0.38772,0.1278 -0.77198,0.26582 -1.15234,0.41406 -0.8238,-0.1838 -1.6571,-0.322 -2.4961,-0.41406 H 477.6342 c -8.6318,0.1846 -16.43146,5.19278 -20.1914,12.96484 -3.81212,-7.87538 -11.76634,-12.90204 -20.51562,-12.96484 h -21.31242 c -6.15796,0.012 -12.05318,2.4964 -16.36328,6.89454 -4.2415,-4.32936 -10.02184,-6.80746 -16.08204,-6.89454 h -20.73828 c -9.87636,0.29186 -18.46016,6.86538 -21.3164,16.32422 -10.13602,-12.43358 -26.5494,-18.4375 -42.04298,-18.4375 z m 676.03126,0.1914 c -11.44254,0 -22.69036,2.29616 -32.70704,7.5625 -4.0866,-3.55614 -9.2983,-5.55392 -14.71484,-5.64062 h -53.76172 c -2.34834,0.43904 -4.61386,1.24166 -6.71484,2.3789 -2.99102,-1.48124 -6.26886,-2.29304 -9.60548,-2.3789 h -53.7578 c -10.8553,7.2e-4 -20.22896,7.5987 -22.47656,18.21876 l -28.9922,137.08592 c -3.01872,14.28426 7.8768,27.72472 22.47656,27.72658 h 20.73438 c 10.87754,-0.001 20.26382,-7.6297 22.48828,-18.27736 l 8.08984,-38.74608 h 2.48438 l -6.1953,29.29686 c -3.01872,14.28426 7.8768,27.72472 22.47656,27.72658 h 53.76172 c 4.22672,-0.28214 8.29318,-1.7273 11.75,-4.1758 9.91882,4.45052 20.9328,6.09766 32.41014,6.09766 12.49394,4e-5 24.81762,-2.6506 35.41798,-9.14062 9.63178,-5.89702 17.6959,-14.54804 22.7617,-24.67968 0.028,-0.0532 0.055,-0.1066 0.082,-0.1602 4.8219,-9.83654 7.1407,-20.79076 7.1407,-31.8086 0,-9.98292 -1.5812,-19.72472 -5.7461,-28.7578 -3.61206,-7.94748 -8.98936,-14.86906 -15.29692,-21.01954 10.24872,2.96058 21.18712,-1.52252 26.41012,-10.82422 l 9.5977,-18.8164 c 5.1669,-10.13296 2.142,-22.52128 -7.1133,-29.13282 -6.0773,-4.34096 -12.8857,-7.30676 -20.0039,-9.29688 -6.83434,-2.06882 -13.89544,-3.23828 -20.99608,-3.23828 z m -1209.1211,91.88282 c -0.0221,0.0534 -0.0534,0.1132 -0.0469,0.0898 0.013,-0.0312 0.0339,-0.0586 0.0469,-0.0898 z m 475.59766,0.34374 c 0.0286,0.0638 0.0494,0.1316 0.0312,0.1016 -0.016,-0.0326 -0.016,-0.069 -0.0312,-0.1016 z m 216.77734,27.44142 c -0.0228,0.5968 0.055,-0.95524 0,0 z m -715.65625,2.02344 c -0.0547,0.039 -0.11458,0.0756 -0.0898,0.0546 0.0284,-0.021 0.0615,-0.0336 0.0898,-0.0546 z m 602.25781,0.23046 c -0.0208,0.0638 -0.0416,0.1158 -0.0312,0.0782 0.008,-0.027 0.0226,-0.0512 0.0312,-0.0782 z m -495.72656,2.17578 -0.0234,0.0976 0.008,-0.043 c 0.004,-0.018 0.012,-0.0358 0.016,-0.0546 z m 482.3711,27.09766 c -0.0494,0.082 -0.0886,0.1342 -0.0586,0.0782 0.018,-0.0282 0.0416,-0.05 0.0586,-0.0782 z M -170.354,299.02795 c -0.008,0.01 -0.0156,0.014 -0.0118,0.008 0.003,-0.004 0.009,-0.004 0.0118,-0.008 z"/>
    </g>
    <g
            id="layer2"
            style="display:inline"
            transform="translate(359.62078,-131.74667)">
        <path
                id="text333-1"
                style="font-size:96px;line-height:1.25;font-family:monospace;-inkscape-font-specification:monospace;letter-spacing:0px;word-spacing:0px;white-space:pre;shape-inside:url(#rect335-3-0-9);fill:#ffffff;stroke-width:2"
                d="m 299.07178,146.93419 c -9.1696,0 -17.86858,2.50546 -25.3789,7.41016 -7.19936,4.70162 -13.43938,10.9905 -18.67578,18.6328 a 7.7854268,7.7854268 0 0 0 -0.0548,0.082 c -4.97092,7.4564 -9.13904,15.7436 -12.52734,24.82422 a 7.7854268,7.7854268 0 0 0 -0.0352,0.0976 c -3.21978,8.9885 -5.69954,18.30402 -7.43752,27.92968 a 7.7854268,7.7854268 0 0 0 -0.016,0.086 c -1.60136,9.47478 -2.41016,18.6131 -2.41016,27.41016 0,15.54748 2.69644,28.03044 9.70314,37.03906 a 7.7854268,7.7854268 0 0 0 0.0976,0.125 c 7.14114,8.80186 18.3725,13.05468 31.19922,13.05468 9.71892,2e-5 18.84642,-2.74132 26.54298,-8.1289 7.34534,-5.14174 13.53008,-11.95988 18.4961,-20.17968 4.93632,-7.96232 8.9015,-16.6509 11.89062,-26.00782 l 0.008,-0.0234 c 3.06204,-9.32326 5.33744,-18.61454 6.8125,-27.86718 1.46034,-9.16032 2.21096,-17.62026 2.21094,-25.41798 0,-14.68994 -2.71084,-26.73588 -9.45702,-35.62108 -6.87068,-9.0492 -18.11282,-13.44532 -30.96876,-13.44532 z m -84.86328,0.1914 c -9.84716,0 -18.78904,1.9508 -26.41406,6.15236 a 7.7854268,7.7854268 0 0 0 -0.0586,0.0312 c -7.37564,4.1488 -13.28598,10.23038 -17.26562,17.73046 a 7.7854268,7.7854268 0 0 0 -0.0312,0.0508 c -3.83426,7.36178 -5.6797,15.73592 -5.6797,24.71876 0,8.74296 1.57182,16.5962 5.14844,23.26172 a 7.7854268,7.7854268 0 0 0 0.1094,0.1992 c 3.4199,5.94764 8.10454,11.57948 13.9336,16.99218 l -0.20704,-0.1992 c 3.4217,3.4217 5.966,6.29062 7.53516,8.38282 1.45886,1.94514 2.21544,3.56714 2.53906,4.79688 a 7.7854268,7.7854268 0 0 0 0.1406,0.48046 c 0.45386,1.36158 0.75392,3.14368 0.7539,5.41016 0,5.73074 -1.32354,8.36132 -3.28124,10.0664 a 7.7854268,7.7854268 0 0 0 -0.0938,0.086 c -2.43364,2.19028 -4.95994,3.1836 -9,3.1836 -3.4251,0 -6.86832,-0.6694 -10.49608,-2.11328 -3.84134,-1.58362 -7.11816,-3.3984 -9.8711,-5.41016 a 7.7854268,7.7854268 0 0 0 -12.25782,4.91796 l -3.83984,21.50392 a 7.7854268,7.7854268 0 0 0 3.20704,7.75 c 8.57288,5.98484 19.69982,8.5078 32.8711,8.5078 10.41134,2e-5 19.75228,-2.16754 27.49218,-6.90624 7.4117,-4.53778 13.27046,-10.85734 17.10156,-18.51954 a 7.7854268,7.7854268 0 0 0 0.0274,-0.0546 c 3.74846,-7.64686 5.59766,-16.13826 5.59766,-25.1211 0,-8.37574 -1.34192,-15.9081 -4.36328,-22.4414 -2.93514,-6.47246 -7.44978,-12.41278 -13.29688,-17.83204 l 0.0742,0.0742 c -5.11102,-4.86764 -8.58982,-8.86012 -10.33984,-11.46874 -1.33358,-2.15106 -2.02734,-4.48526 -2.02734,-7.66016 0,-4.78682 1.09332,-7.0303 2.89062,-8.69922 2.2303,-2.071 4.3247,-2.91016 7.75782,-2.91016 1.88052,0 3.9075,0.41384 6.26952,1.45312 a 7.7854268,7.7854268 0 0 0 0.34376,0.1406 c 2.59492,0.99804 5.32668,2.50208 8.18358,4.58984 a 7.7854268,7.7854268 0 0 0 11.52736,-2.7461 l 9.60156,-18.8164 a 7.7854268,7.7854268 0 0 0 -2.41016,-9.875 c -4.43254,-3.1661 -9.62114,-5.48216 -15.41016,-7.08594 -5.6129,-1.7156 -11.22192,-2.6211 -16.76172,-2.6211 z m 502.84766,0 c -11.5865,0 -22.41096,3.1505 -31.73046,9.35156 -9.087,5.92058 -16.79628,14.04436 -23.0625,24.07032 a 7.7854268,7.7854268 0 0 0 -0.016,0.0234 c -6.0817,9.81366 -10.72456,20.91788 -13.96874,33.21874 a 7.7854268,7.7854268 0 0 0 -0.016,0.0586 c -3.11208,12.17768 -4.65626,24.87124 -4.65626,38.02344 0,15.35284 3.39752,28.2147 11.20312,37.61328 7.96824,9.5944 20.42346,14.14062 34.98048,14.14062 5.25954,2e-5 10.88306,-0.6554 16.92186,-1.89062 6.06486,-1.24054 12.15824,-3.02428 18.27736,-5.33594 a 7.7854268,7.7854268 0 0 0 4.86718,-5.67578 l 14.78516,-70.07812 a 7.7854268,7.7854268 0 0 0 -7.61718,-9.39062 H 700.7351 a 7.7854268,7.7854268 0 0 0 -7.60936,6.14844 l -3.83986,17.85546 a 7.7854268,7.7854268 0 0 0 7.60938,9.42188 h 6.16016 l -5.01172,23.99608 c -2.10184,0.37568 -4.18784,0.94532 -6.33204,0.94532 -4.4277,0 -6.13108,-0.95986 -7.875,-3.30468 -1.54988,-2.23526 -3.15624,-7.54562 -3.15624,-15.98048 0,-8.26212 0.89584,-16.5949 2.70312,-25.03516 1.9269,-8.53058 4.60704,-16.24498 8.01564,-23.17968 a 7.7854268,7.7854268 0 0 0 0.0234,-0.0468 c 3.35464,-6.94062 7.20722,-12.19218 11.40626,-15.98438 4.05896,-3.55568 7.78154,-4.96092 12.30468,-4.96092 6.06448,0 11.78682,1.9155 17.8672,6.36718 a 7.7854268,7.7854268 0 0 0 11.4375,-2.5625 l 9.60156,-17.66406 a 7.7854268,7.7854268 0 0 0 -2.16798,-9.94532 c -4.47486,-3.35616 -9.77062,-5.83648 -15.73436,-7.58202 -6.01658,-1.76088 -12.40288,-2.6172 -19.08204,-2.6172 z m 258.04688,0 c -9.84716,0 -18.78904,1.9508 -26.41406,6.15236 a 7.7854268,7.7854268 0 0 0 -0.0586,0.0312 c -6.47234,3.64068 -11.56346,8.98026 -15.46484,15.25 l 2.1328,-10.1211 a 7.7854268,7.7854268 0 0 0 -7.61718,-9.39062 h -53.76172 a 7.7854268,7.7854268 0 0 0 -7.61718,6.17578 l -28.9922,137.08598 a 7.7854268,7.7854268 0 0 0 7.6172,9.39454 h 53.76172 a 7.7854268,7.7854268 0 0 0 7.62108,-6.19922 l 1.28126,-6.14454 a 7.7854268,7.7854268 0 0 0 2.3828,5.75782 c 8.57402,5.98562 19.70374,8.5078 32.875,8.5078 10.41136,2e-5 19.74962,-2.16828 27.48828,-6.90624 7.41048,-4.53702 13.27324,-10.85506 17.10548,-18.51954 a 7.7854268,7.7854268 0 0 0 0.0274,-0.0546 c 3.74956,-7.6491 5.59376,-16.14082 5.59376,-25.1211 0,-8.37574 -1.34192,-15.9081 -4.36328,-22.4414 -2.93514,-6.47246 -7.4498,-12.41278 -13.29688,-17.83204 l 0.0742,0.0742 c -5.11006,-4.86672 -8.58948,-8.85614 -10.33984,-11.46484 -1.33264,-2.14844 -2.02344,-4.48322 -2.02344,-7.66406 0,-4.79004 1.09148,-7.03222 2.88672,-8.69922 2.2303,-2.071 4.32468,-2.91016 7.7578,-2.91016 1.88052,0 3.91356,0.41478 6.27344,1.45312 a 7.7854268,7.7854268 0 0 0 0.34376,0.1406 c 2.59492,0.99804 5.32666,2.50208 8.18358,4.58984 a 7.7854268,7.7854268 0 0 0 11.5273,-2.7461 l 9.5977,-18.8164 a 7.7854268,7.7854268 0 0 0 -2.4101,-9.875 c -4.4304,-3.16456 -9.61636,-5.48188 -15.4063,-7.08594 -5.614,-1.71592 -11.22582,-2.6211 -16.76562,-2.6211 z m -1282.75001,1.92188 a 7.7854268,7.7854268 0 0 0 -7.61718,6.17578 l -28.99219,137.08594 a 7.7854268,7.7854268 0 0 0 7.61719,9.39454 h 20.73437 a 7.7854268,7.7854268 0 0 0 7.61719,-6.1797 l 9.45312,-44.89062 h 1.9375 c 11.64403,0 22.13623,-2.98022 30.54297,-9.20312 8.14574,-5.93698 14.35082,-13.92068 18.30078,-23.42188 1.57882,-3.72724 2.60163,-7.65226 3.55469,-11.59766 l -8.74609,41.34376 c -1.36857,6.43224 -2.09375,12.39254 -2.09375,17.9414 0,10.91134 3.24732,20.69764 10.08984,27.70704 a 7.7854268,7.7854268 0 0 0 0.13282,0.1328 c 6.98751,6.82116 16.71257,10.08984 27.51563,10.08984 14.7176,0 27.37755,-4.70828 35.67968,-14.4414 v -0.004 c 7.87965,-9.21874 13.14891,-21.4224 16.28125,-36.2461 l 0.008,-0.0312 20.34374,-94.4297 a 7.7854268,7.7854268 0 0 0 -7.60936,-9.42578 h -20.73437 a 7.7854268,7.7854268 0 0 0 -7.60938,6.14454 l -19.77734,91.77342 c -2.05282,9.41174 -4.66214,15.91152 -6.82422,19.04298 -1.92436,2.6787 -3.33226,3.42188 -6.87891,3.42188 -2.35628,0 -2.46928,-0.3035 -2.86328,-0.79298 -0.39399,-0.48948 -1.2539,-2.32328 -1.2539,-6.20702 0,-1.26848 0.0993,-2.90248 0.32812,-4.84766 0.22288,-1.89448 0.56063,-3.88024 1.01953,-5.94532 a 7.7854268,7.7854268 0 0 0 0.0156,-0.0704 l 19.77735,-93.1172 a 7.7854268,7.7854268 0 0 0 -7.61329,-9.40234 h -20.73828 a 7.7854268,7.7854268 0 0 0 -7.61718,6.17188 l -9.66016,45.64844 c 0.70497,-4.29386 1.25781,-8.63592 1.25781,-13.125 0,-10.83828 -3.35857,-20.65302 -10.21875,-27.83984 -7.25217,-7.59758 -18.03356,-10.85548 -30.59375,-10.85548 z m 170.87891,0 a 7.7854268,7.7854268 0 0 0 -7.61718,6.17968 l -3.83984,18.23828 a 7.7854268,7.7854268 0 0 0 7.61718,9.39064 h 23.89062 l -53.65234,91.97266 a 7.7854268,7.7854268 0 0 0 -0.90625,2.375 l -3.07422,15.16796 a 7.7854268,7.7854268 0 0 0 7.6289,9.33204 h 62.97657 a 7.7854268,7.7854268 0 0 0 2.89844,-2.35938 7.7854268,7.7854268 0 0 0 4.976559,2.35938 h 62.97266 a 7.7854268,7.7854268 0 0 0 7.62108,-6.19922 l 0.41408,-1.9922 a 7.7854268,7.7854268 0 0 0 7.32812,8.19142 h 53.94922 a 7.7854268,7.7854268 0 0 0 7.63672,-6.27344 l 0.1288,-0.64844 a 7.7854268,7.7854268 0 0 0 7.01954,6.92188 H 104.9584 a 7.7854268,7.7854268 0 0 0 7.6211,-6.19532 l 3.84374,-18.42968 a 7.7854268,7.7854268 0 0 0 -7.62108,-9.375 H 85.220119 l 6.0625,-28.20704 H 115.7123 a 7.7854268,7.7854268 0 0 0 7.60158,-6.10546 l 4.03124,-18.2422 a 7.7854268,7.7854268 0 0 0 -7.60156,-9.46484 H 98.614759 l 4.792961,-22.82812 h 26.70312 a 7.7854268,7.7854268 0 0 0 7.6172,-6.1797 l 3.83984,-18.23828 a 7.7854268,7.7854268 0 0 0 -7.61718,-9.39062 H 80.192879 a 7.7854268,7.7854268 0 0 0 -7.61718,6.17578 l -25.01172,118.26562 a 7.7854268,7.7854268 0 0 0 -7.5,-5.78514 h -23.58986 l 23.33204,-109.2461 a 7.7854268,7.7854268 0 0 0 -7.61328,-9.41016 h -20.73828 a 7.7854268,7.7854268 0 0 0 -7.6172004,6.17578 l -25.3085796,119.6914 a 7.7854268,7.7854268 0 0 0 -7.58594,-7.21092 h -26.14454 l 53.7851596,-91.57032 a 7.7854268,7.7854268 0 0 0 0.90234001,-2.32422 L 2.7514786,158.44981 a 7.7854268,7.7854268 0 0 0 -7.61328,-9.40234 H -65.920401 a 7.7854268,7.7854268 0 0 0 -3.6914,2.99218 7.7854268,7.7854268 0 0 0 -6.10158,-2.99218 z m 499.19922,0 a 7.7854268,7.7854268 0 0 0 -7.61718,6.17578 l -28.9922,137.08594 a 7.7854268,7.7854268 0 0 0 7.6172,9.39454 h 53.95312 a 7.7854268,7.7854268 0 0 0 7.63672,-6.27344 l 3.64844,-18.4297 a 7.7854268,7.7854268 0 0 0 -7.63672,-9.29686 H 367.4507 l 23.33202,-109.2461 a 7.7854268,7.7854268 0 0 0 -7.61328,-9.41016 z m 53.1836,0 a 7.7854268,7.7854268 0 0 0 -7.78516,7.8711 l 1.53906,137.08594 a 7.7854268,7.7854268 0 0 0 7.78516,7.69922 h 23.80468 a 7.7854268,7.7854268 0 0 0 7.15626,-4.71876 l 51.94922,-121.20702 5.95702,1.98436 -19.87108,94.23438 -11.44532,3.30468 a 7.7854268,7.7854268 0 0 0 -5.46484,5.90236 l -2.3047,11.1367 a 7.7854268,7.7854268 0 0 0 7.625,9.3633 h 50.4961 a 7.7854268,7.7854268 0 0 0 7.625,-6.20704 l 0.23046,-1.1211 a 7.7854268,7.7854268 0 0 0 7.1211,7.32814 h 19.58204 a 7.7854268,7.7854268 0 0 0 7.61328,-6.16408 l 12.60156,-59.14842 9.9336,58.8242 a 7.7854268,7.7854268 0 0 0 7.67578,6.4883 h 23.42578 a 7.7854268,7.7854268 0 0 0 7.61328,-6.16408 l 29.18358,-137.08592 a 7.7854268,7.7854268 0 0 0 -7.61328,-9.40626 H 630.271 a 7.7854268,7.7854268 0 0 0 -7.60938,6.14454 l -12.51562,58.08202 -9.82812,-57.74608 a 7.7854268,7.7854268 0 0 0 -7.67578,-6.48048 h -23.61718 a 7.7854268,7.7854268 0 0 0 -7.41408,6.01172 7.7854268,7.7854268 0 0 0 -7.5625,-6.01172 h -50.6875 a 7.7854268,7.7854268 0 0 0 -1.0664,0.88282 7.7854268,7.7854268 0 0 0 -2.58204,-0.88282 h -22.07812 a 7.7854268,7.7854268 0 0 0 -7.20702,4.84376 l -26.44142,64.76172 0.72656,-61.73048 a 7.7854268,7.7854268 0 0 0 -7.78514,-7.875 z m 388.22656,0 a 7.7854268,7.7854268 0 0 0 -7.6172,6.17578 l -28.99218,137.08594 a 7.7854268,7.7854268 0 0 0 7.61718,9.39454 h 20.73438 a 7.7854268,7.7854268 0 0 0 7.6211,-6.19532 l 10.61328,-50.82812 h 24.39062 a 7.7854268,7.7854268 0 0 0 7.60156,-6.10548 l 4.03126,-18.23828 a 7.7854268,7.7854268 0 0 0 -7.60156,-9.46484 h -21.11328 l 5.92186,-28.01562 h 26.71094 a 7.7854268,7.7854268 0 0 0 7.6172,-6.1797 l 3.83984,-18.23828 a 7.7854268,7.7854268 0 0 0 -7.6172,-9.39062 z m -245.75392,21.8789 -23.2617,109.9922 a 7.7854268,7.7854268 0 0 0 -5.00392,-5.52344 l -7.23438,-2.41016 19.875,-94.23046 11.44532,-3.3125 a 7.7854268,7.7854268 0 0 0 4.17968,-4.51564 z m 370.3086,8.23438 c -1.63266,5.25914 -2.74218,10.74952 -2.74218,16.64844 0,8.74556 1.57714,16.59884 5.15234,23.26172 a 7.7854268,7.7854268 0 0 0 0.1094,0.1992 c 3.4184,5.94506 8.09924,11.5782 13.92968,16.99218 l -0.20702,-0.1992 c 3.42166,3.42168 5.96584,6.29046 7.53514,8.38282 1.45886,1.94514 2.21546,3.56714 2.53906,4.79688 a 7.7854268,7.7854268 0 0 0 0.1406,0.48046 c 0.45386,1.36158 0.7539,3.14368 0.7539,5.41016 0,5.73074 -1.32356,8.36132 -3.28124,10.0664 a 7.7854268,7.7854268 0 0 0 -0.0938,0.086 c -2.43364,2.19028 -4.95994,3.1836 -9,3.1836 -3.4251,0 -6.86834,-0.6694 -10.4961,-2.11328 -3.84132,-1.58362 -7.11816,-3.3984 -9.87108,-5.41016 a 7.7854268,7.7854268 0 0 0 -12.25782,4.91796 l -1.16016,6.48828 a 7.7854268,7.7854268 0 0 0 -6.91796,-4.64842 h -23.58204 l 6.0625,-28.20704 h 24.4297 a 7.7854268,7.7854268 0 0 0 7.60156,-6.10546 l 4.03124,-18.2422 a 7.7854268,7.7854268 0 0 0 -7.60156,-9.46484 h -21.1289 l 4.79688,-22.82812 h 26.70312 a 7.7854268,7.7854268 0 0 0 4.55468,-3.69532 z m -1003.199221,1.29298 a 7.7854268,7.7854268 0 0 0 5.04298,2.40234 h 23.89062 l -50.17188,86.0078 a 7.7854268,7.7854268 0 0 0 -3.86328,-1.16014 H -126.0493 Z m 372.148441,0.67578 c 2.13946,0 2.0438,-0.039 3.07422,1.71874 1.03042,1.75774 2.1953,6.10196 2.19532,12.76562 0,5.16098 -0.47354,11.21704 -1.45704,18.10156 a 7.7854268,7.7854268 0 0 0 -0.016,0.1172 c -0.85072,6.68422 -2.18854,13.52038 -4.02734,20.5078 -1.81808,6.9087 -4.04832,13.27398 -6.66798,19.1133 -2.51526,5.4818 -5.32186,9.67946 -8.2539,12.72656 -2.5156,2.49992 -4.43532,3.25 -7.1211,3.25 -2.23452,0 -2.29104,-0.1102 -3.15234,-1.48048 -0.72626,-1.22228 -2.11718,-6.33218 -2.11718,-14.35156 0,-4.28912 0.3575,-9.77342 1.09374,-16.30468 0.85218,-6.43856 2.131,-13.16376 3.84766,-20.16406 1.8265,-6.93098 4.00216,-13.32364 6.51172,-19.1836 2.52508,-5.72792 5.39552,-10.09894 8.4336,-13.23828 2.66548,-2.75432 4.72396,-3.57812 7.65624,-3.57812 z m -581.84766,1.94922 c 2.14137,0.24772 3.45821,0.7482 4.00391,1.30078 0.70474,0.71362 1.54688,2.212 1.54688,6.05078 0,8.961 -1.94048,15.48192 -5.31641,20.30468 a 7.7854268,7.7854268 0 0 0 -0.0156,0.0274 c -1.94217,2.79902 -4.31465,4.19834 -7.19531,5.0586 z"/>
    </g>
    <g
            id="layer1"
            style="display:inline"
            transform="translate(359.62078,-131.74667)">
        <path
                d="m -336.63975,293.91928 28.992,-137.088 h 24.768 q 16.896,0 24.96,8.448 8.064,8.448 8.064,22.464 0,14.592 -5.376,27.264 -5.184,12.48 -15.744,20.16 -10.368,7.68 -25.92,7.68 h -8.256 l -10.752,51.072 z m 39.744,-69.312 q 12.48,0 19.008,-9.408 6.72,-9.6 6.72,-24.768 0,-15.36 -15.168,-15.36 h -4.416 l -10.56,49.536 z"
                style="font-style:italic;font-weight:600;font-stretch:extra-condensed;font-size:96px;line-height:1.25;font-family:'Noto Sans';-inkscape-font-specification:'Noto Sans Semi-Bold Italic Extra-Condensed';letter-spacing:0px;word-spacing:0px;white-space:pre;fill:#ff15a0;fill-opacity:1;stroke-width:2"
                id="path1127"/>
        <path
                d="m -217.59958,295.83928 q -14.016,0 -22.08,-7.872 -7.872,-8.064 -7.872,-22.272 0,-7.296 1.92,-16.32 l 19.584,-92.544 h 20.736 l -19.776,93.12 q -0.768,3.456 -1.152,6.72 -0.384,3.264 -0.384,5.76 0,14.784 11.904,14.784 8.448,0 13.248,-6.72 4.8,-6.912 8.064,-21.888 l 19.776,-91.776 h 20.736 l -20.352,94.464 q -4.416,20.928 -14.592,32.832 -9.984,11.712 -29.76,11.712 z"
                style="font-style:italic;font-weight:600;font-stretch:extra-condensed;font-size:96px;line-height:1.25;font-family:'Noto Sans';-inkscape-font-specification:'Noto Sans Semi-Bold Italic Extra-Condensed';letter-spacing:0px;word-spacing:0px;white-space:pre;fill:#00bdff;fill-opacity:1;stroke-width:2"
                id="path1129"/>
        <path
                d="m -166.71942,293.91928 3.072,-15.168 60.48,-103.68 h -37.44 l 3.84,-18.24 h 61.056003 l -3.264,15.36 -60.672003,103.296 h 39.744003 l -3.840003,18.432 z"
                style="font-style:italic;font-weight:600;font-stretch:extra-condensed;font-size:96px;line-height:1.25;font-family:'Noto Sans';-inkscape-font-specification:'Noto Sans Semi-Bold Italic Extra-Condensed';letter-spacing:0px;word-spacing:0px;white-space:pre;fill:#ffce00;fill-opacity:1;stroke-width:2"
                id="path1131"/>
        <path
                d="m -95.871517,293.91928 3.072,-15.168 60.48,-103.68 h -37.44 l 3.84,-18.24 h 61.0559996 l -3.264,15.36 -60.6719996,103.296 h 39.744 l -3.84,18.432 z"
                style="font-style:italic;font-weight:600;font-stretch:extra-condensed;font-size:96px;line-height:1.25;font-family:'Noto Sans';-inkscape-font-specification:'Noto Sans Semi-Bold Italic Extra-Condensed';letter-spacing:0px;word-spacing:0px;white-space:pre;fill:#ff15a0;fill-opacity:1;stroke-width:2"
                id="path1133"/>
        <path
                d="m -17.535617,293.91928 28.992,-137.088 h 20.736 L 6.8483826,275.48728 H 40.064383 l -3.648,18.432 z"
                style="font-style:italic;font-weight:600;font-stretch:extra-condensed;font-size:96px;line-height:1.25;font-family:'Noto Sans';-inkscape-font-specification:'Noto Sans Semi-Bold Italic Extra-Condensed';letter-spacing:0px;word-spacing:0px;white-space:pre;fill:#00bdff;fill-opacity:1;stroke-width:2"
                id="path1135"/>
        <path
                d="m 51.200343,293.91928 28.992,-137.088 h 53.759997 l -3.84,18.24 H 97.088343 l -8.064,38.4 h 30.719997 l -4.032,18.24 H 84.992343 l -9.408,43.776 h 33.215997 l -3.84,18.432 z"
                style="font-style:italic;font-weight:600;font-stretch:extra-condensed;font-size:96px;line-height:1.25;font-family:'Noto Sans';-inkscape-font-specification:'Noto Sans Semi-Bold Italic Extra-Condensed';letter-spacing:0px;word-spacing:0px;white-space:pre;fill:#ffce00;fill-opacity:1;stroke-width:2"
                id="path1137"/>
        <path
                d="m 181.95214,295.83928 q -18.24,0 -28.416,-7.104 l 3.84,-21.504 q 4.992,3.648 11.52,6.336 6.72,2.688 13.44,2.688 8.448,0 14.208,-5.184 5.952,-5.184 5.952,-15.936 0,-4.416 -1.152,-7.872 -0.96,-3.648 -3.84,-7.488 -2.88,-3.84 -8.256,-9.216 -8.064,-7.488 -12.48,-15.168 -4.224,-7.872 -4.224,-19.584 0,-11.904 4.8,-21.12 4.992,-9.408 14.208,-14.592 9.408,-5.184 22.656,-5.184 7.104,0 14.592,2.304 7.68,2.112 13.056,5.952 l -9.6,18.816 q -4.992,-3.648 -9.984,-5.568 -4.8,-2.112 -9.408,-2.112 -7.68,0 -13.056,4.992 -5.376,4.992 -5.376,14.4 0,6.72 3.264,11.904 3.456,5.184 11.52,12.864 7.872,7.296 11.52,15.36 3.648,7.872 3.648,19.2 0,11.904 -4.8,21.696 -4.8,9.6 -14.208,15.36 -9.408,5.76 -23.424,5.76 z"
                style="font-style:italic;font-weight:600;font-stretch:extra-condensed;font-size:96px;line-height:1.25;font-family:'Noto Sans';-inkscape-font-specification:'Noto Sans Semi-Bold Italic Extra-Condensed';letter-spacing:0px;word-spacing:0px;white-space:pre;fill:#ff15a0;fill-opacity:1;stroke-width:2"
                id="path1139"/>
        <path
                d="m 273.53622,295.83928 c -11.264,0 -19.648,-3.392 -25.152,-10.176 -5.376,-6.912 -8.064,-17.664 -8.064,-32.256 0,-8.32 0.768,-17.024 2.304,-26.112 1.664,-9.216 4.032,-18.112 7.104,-26.688 3.2,-8.576 7.104,-16.32 11.712,-23.232 4.736,-6.912 10.24,-12.416 16.512,-16.512 6.272,-4.096 13.312,-6.144 21.12,-6.144 11.264,0 19.52,3.456 24.768,10.368 5.248,6.912 7.872,17.216 7.872,30.912 0,7.296 -0.704,15.36 -2.112,24.192 -1.408,8.832 -3.584,17.728 -6.528,26.688 -2.816,8.832 -6.528,16.96 -11.136,24.384 -4.48,7.424 -9.92,13.376 -16.32,17.856 -6.4,4.48 -13.76,6.72 -22.08,6.72 z"
                style="font-style:italic;font-weight:600;font-stretch:extra-condensed;font-size:96px;line-height:1.25;font-family:'Noto Sans';-inkscape-font-specification:'Noto Sans Semi-Bold Italic Extra-Condensed';letter-spacing:0px;word-spacing:0px;white-space:pre;fill:#00bdff;fill-opacity:1;stroke-width:2"
                id="path1141"/>
        <path
                d="m 333.4402,293.91928 28.992,-137.088 h 20.736 l -25.344,118.656 h 33.216 l -3.648,18.432 z"
                style="font-style:italic;font-weight:600;font-stretch:extra-condensed;font-size:96px;line-height:1.25;font-family:'Noto Sans';-inkscape-font-specification:'Noto Sans Semi-Bold Italic Extra-Condensed';letter-spacing:0px;word-spacing:0px;white-space:pre;fill:#ffce00;fill-opacity:1;stroke-width:2"
                id="path1143"/>
        <path
                d="m 417.15234,293.91928 -1.536,-137.088 h 21.312 l -0.96,81.216 q -0.192,6.336 -0.576,12.864 -0.192,6.336 -0.96,14.784 h 0.384 q 1.536,-5.376 3.648,-11.712 2.112,-6.336 4.992,-13.44 l 34.176,-83.712 h 22.08 l -58.752,137.088 z"
                style="font-style:italic;font-weight:600;font-stretch:extra-condensed;font-size:96px;line-height:1.25;font-family:'Noto Sans';-inkscape-font-specification:'Noto Sans Semi-Bold Italic Extra-Condensed';letter-spacing:0px;word-spacing:0px;white-space:pre;fill:#ff15a0;fill-opacity:1;stroke-width:2"
                id="path1145"/>
        <path
                d="m 474.56034,293.91928 2.304,-11.136 15.936,-4.608 22.272,-105.6 -13.824,-4.608 2.112,-11.136 h 50.688 l -2.304,11.136 -15.936,4.608 -22.272,105.6 13.824,4.608 -2.304,11.136 z"
                style="font-style:italic;font-weight:600;font-stretch:extra-condensed;font-size:96px;line-height:1.25;font-family:'Noto Sans';-inkscape-font-specification:'Noto Sans Semi-Bold Italic Extra-Condensed';letter-spacing:0px;word-spacing:0px;white-space:pre;fill:#00bdff;fill-opacity:1;stroke-width:2"
                id="path1147"/>
        <path
                d="m 540.03226,293.91928 28.992,-137.088 h 23.616 l 16.896,99.264 h 0.576 q 1.536,-9.408 3.072,-18.24 1.728,-8.832 2.688,-14.208 l 14.4,-66.816 h 19.776 l -29.184,137.088 h -23.424 l -17.088,-101.184 h -0.576 q -0.768,6.72 -2.112,13.824 -1.152,6.912 -2.496,12.864 -1.152,5.952 -1.728,9.6 l -13.824,64.896 z"
                style="font-style:italic;font-weight:600;font-stretch:extra-condensed;font-size:96px;line-height:1.25;font-family:'Noto Sans';-inkscape-font-specification:'Noto Sans Semi-Bold Italic Extra-Condensed';letter-spacing:0px;word-spacing:0px;white-space:pre;fill:#ffce00;fill-opacity:1;stroke-width:2"
                id="path1149"/>
        <path
                d="m 689.79212,295.83928 q -19.584,0 -28.992,-11.328 -9.408,-11.328 -9.408,-32.64 0,-18.816 4.416,-36.096 4.608,-17.472 13.056,-31.104 8.64,-13.824 20.736,-21.696 12.096,-8.064 27.456,-8.064 9.024,0 16.896,2.304 7.872,2.304 13.248,6.336 l -9.6,17.664 q -10.752,-7.872 -22.464,-7.872 -9.6,0 -17.472,6.912 -7.68,6.912 -13.248,18.432 -5.568,11.328 -8.64,24.96 -2.88,13.44 -2.88,26.688 0,14.016 4.608,20.544 4.8,6.528 14.208,6.528 6.528,0 12.864,-1.92 l 8.064,-38.592 h -15.744 l 3.84,-17.856 h 36.288 l -14.784,70.08 q -8.64,3.264 -17.088,4.992 -8.448,1.728 -15.36,1.728 z"
                style="font-style:italic;font-weight:600;font-stretch:extra-condensed;font-size:96px;line-height:1.25;font-family:'Noto Sans';-inkscape-font-specification:'Noto Sans Semi-Bold Italic Extra-Condensed';letter-spacing:0px;word-spacing:0px;white-space:pre;fill:#ff15a0;fill-opacity:1;stroke-width:2"
                id="path1151"/>
        <path
                d="m 774.84816,293.91928 28.992,-137.088 h 53.76 l -3.84,18.24 h -33.024 l -9.216,43.584 h 30.72 l -4.032,18.24 h -30.72 l -11.904,57.024 z"
                style="font-style:italic;font-weight:600;font-stretch:extra-condensed;font-size:96px;line-height:1.25;font-family:'Noto Sans';-inkscape-font-specification:'Noto Sans Semi-Bold Italic Extra-Condensed';letter-spacing:0px;word-spacing:0px;white-space:pre;fill:#00bdff;fill-opacity:1;stroke-width:2"
                id="path1153"/>
        <path
                d="m 844.92812,293.91928 28.992,-137.088 h 53.76 l -3.84,18.24 h -33.024 l -8.064,38.4 h 30.72 l -4.032,18.24 h -30.72 l -9.408,43.776 h 33.216 l -3.84,18.432 z"
                style="font-style:italic;font-weight:600;font-stretch:extra-condensed;font-size:96px;line-height:1.25;font-family:'Noto Sans';-inkscape-font-specification:'Noto Sans Semi-Bold Italic Extra-Condensed';letter-spacing:0px;word-spacing:0px;white-space:pre;fill:#ffce00;fill-opacity:1;stroke-width:2"
                id="path1155"/>
        <path
                d="m 942.84802,295.83928 q -18.24,0 -28.416,-7.104 l 3.84,-21.504 q 4.992,3.648 11.52,6.336 6.72,2.688 13.44,2.688 8.448,0 14.208,-5.184 5.952,-5.184 5.952,-15.936 0,-4.416 -1.152,-7.872 -0.96,-3.648 -3.84,-7.488 -2.88,-3.84 -8.256,-9.216 -8.064,-7.488 -12.48,-15.168 -4.224,-7.872 -4.224,-19.584 0,-11.904 4.8,-21.12 4.992,-9.408 14.208,-14.592 9.408,-5.184 22.656,-5.184 7.104,0 14.592,2.304 7.68,2.112 13.05598,5.952 l -9.59998,18.816 q -4.992,-3.648 -9.984,-5.568 -4.8,-2.112 -9.408,-2.112 -7.68,0 -13.056,4.992 -5.376,4.992 -5.376,14.4 0,6.72 3.264,11.904 3.456,5.184 11.52,12.864 7.872,7.296 11.52,15.36 3.648,7.872 3.648,19.2 0,11.904 -4.8,21.696 -4.8,9.6 -14.208,15.36 -9.408,5.76 -23.424,5.76 z"
                style="font-style:italic;font-weight:600;font-stretch:extra-condensed;font-size:96px;line-height:1.25;font-family:'Noto Sans';-inkscape-font-specification:'Noto Sans Semi-Bold Italic Extra-Condensed';letter-spacing:0px;word-spacing:0px;white-space:pre;fill:#ff15a0;fill-opacity:1;stroke-width:2"
                id="path1157"/>
    </g>
    <path
            d="m 631.01026,123.18952 c 0,5.2294 -1.22,9.2794 -3.67,12.1394 -2.45,2.938 -5.79,4.402 -10.028,4.402 -2.988,0 -5.4,-0.932 -7.246,-2.794 -1.912,-2.004 -2.866,-4.366 -2.866,-7.088 0,-3.657 1.192,-6.6594 3.576,-9.0298 2.386,-2.435 5.46,-3.656 9.224,-3.656 2.024,0 3.784,0.359 5.278,1.0774 l 0.086,-0.2156 V 61.832923 c 0,-0.9266 0.36,-1.4654 1.078,-1.609 l 45.03,-10.3146 c 0.474,-0.1438 0.876,-0.036 1.206,0.3232 0.332,0.3592 0.496,0.862 0.496,1.5012 v 60.494597 c 0,5.1574 -1.22,9.1726 -3.67,12.0314 -2.45,2.9378 -5.79,4.4032 -10.028,4.4032 -2.922,0 -5.344,-0.9266 -7.246,-2.7942 -1.912,-1.8604 -2.866,-4.2236 -2.866,-7.0896 0,-3.5842 1.192,-6.5866 3.576,-9.0288 2.384,-2.435 5.46,-3.6562 9.224,-3.6562 2.024,0 3.784,0.395 5.278,1.1852 l 0.086,-0.2154 V 87.080923 l -36.524,8.3824 v 27.718997 z m 36.526,-50.926997 v -6.5508 l -36.526,8.2748 v 6.6584 z"
            fill="#ffffff"
            id="path110-7"
            style="stroke-width:2"/>
</svg>
